<svg xmlns="http://www.w3.org/2000/svg" viewBox="0 0 101.88 109.99"><defs><style>.cls-1{fill:#fff;}</style></defs><g id="圖層_2" data-name="圖層 2"><g id="a"><path class="cls-1" d="M32.29,38.94H98.1c2.92,0,3.78.86,3.78,3.74q0,27.38,0,54.76a12,12,0,0,1-9.42,12.2,14.23,14.23,0,0,1-3.13.34Q54.65,110,20,110c-7.27,0-12.5-5.28-12.5-12.58q0-22.29,0-44.58a1.52,1.52,0,0,0-1.12-1.68,9.75,9.75,0,0,1-6.3-8.45,9.75,9.75,0,0,1,4.07-9.18,1.46,1.46,0,0,0,.74-1.62c-.94-5.43,2.49-11.71,9.4-13.53C35.75,12.7,57.19,6.92,78.65,1.18a21,21,0,0,1,7-1.15A11.86,11.86,0,0,1,96,8.05c1,3.3,1.89,6.66,2.75,10,.43,1.66-.49,3-2.31,3.46-4.7,1.27-9.4,2.51-14.1,3.76L33.2,38.41c-.32.09-.63.2-.94.3l0,.23Zm7.23,5.52c-3.47,0-6.59,0-9.71,0a2.47,2.47,0,0,0-1.93.82q-7,7.07-14.07,14.06A2.72,2.72,0,0,0,13,61.48q0,18,0,35.92c0,4.36,2.69,7.06,7.07,7.06H89.3c4.38,0,7.07-2.68,7.07-7.06V60.35H80.15l-.18-.3,15.6-15.6c-3.34,0-6.45,0-9.56,0a2.31,2.31,0,0,0-1.83.78Q77,52.47,69.7,59.68a2.4,2.4,0,0,1-1.49.66c-5.15,0-10.29,0-15.44,0-.24,0-.49-.06-1.11-.14L67.4,44.52c-.44,0-.78-.06-1.11-.06-2.81,0-5.62-.05-8.42,0a2.93,2.93,0,0,0-1.81.74c-4.83,4.76-9.6,9.59-14.44,14.35a2.83,2.83,0,0,1-1.8.75c-5,.06-9.9,0-14.86,0-.33,0-.66,0-1.27-.08L39.52,44.45Zm26-34.15c.61.38,1,.6,1.32.81,4.11,2.38,8.3,4.64,12.31,7.17A6.09,6.09,0,0,0,84.9,19c2.29-.79,4.67-1.3,7.25-2-.58-.36-.93-.6-1.29-.8-3.74-2.16-7.59-4.16-11.19-6.54-2.6-1.71-5.07-2.5-8-1a1.86,1.86,0,0,1-.34.07ZM12,25.4l1.47.88c4,2.29,8,4.51,11.92,6.91a4.79,4.79,0,0,0,4.35.58c2.6-.84,5.27-1.47,7.92-2.18l.12-.28a4,4,0,0,1-.43-.19c-5-2.88-10.06-5.78-15.11-8.63a2.13,2.13,0,0,0-1.43-.15c-2,.48-3.93,1-5.85,1.59a23.2,23.2,0,0,0-3,1.48ZM38.4,17.58c.59.36.88.55,1.18.72C43.73,20.69,47.94,23,52,25.52a6.07,6.07,0,0,0,5.74.78c2.31-.83,4.73-1.33,7.19-2-.18-.22-.23-.33-.32-.38Q57,19.54,49.3,15.18a1.52,1.52,0,0,0-1-.2c-3.19.81-6.38,1.67-9.9,2.61ZM10.27,37a4.73,4.73,0,0,0-.11,9.46A4.73,4.73,0,1,0,10.28,37Z"/></g></g></svg>