<svg xmlns="http://www.w3.org/2000/svg" viewBox="0 0 116.54 116.32"><defs><style>.cls-1{fill:#fff;}</style></defs><g id="圖層_2" data-name="圖層 2"><g id="a"><path class="cls-1" d="M0,39.07c.11-1,.2-1.92.32-2.87A40.21,40.21,0,0,1,9.49,15,40.76,40.76,0,0,1,31,1.37,41.28,41.28,0,0,1,81.8,32.21c2.51,11.19.52,21.68-5.52,31.42l-.47.74c.12.13.22.26.34.38,2.51,2.51,5,5,7.52,7.54a.66.66,0,0,0,.87.16A7.25,7.25,0,0,1,93,74q9.81,9.79,19.6,19.6a13.34,13.34,0,0,1,.35,18.64,13.58,13.58,0,0,1-18.91.41c-5.87-5.74-11.64-11.6-17.45-17.41-.87-.87-1.75-1.74-2.62-2.62a7.34,7.34,0,0,1-1.49-8.44.53.53,0,0,0-.14-.72q-3.81-3.8-7.6-7.61c-.33-.33-.53-.19-.81,0a41.7,41.7,0,0,1-14.76,6,40.31,40.31,0,0,1-14.65.19A40.68,40.68,0,0,1,8.89,66.92,40.18,40.18,0,0,1,.33,46.47c-.12-1-.22-1.95-.33-2.93V39.07Zm9.71,2.19A31.58,31.58,0,1,0,41.35,9.71,31.53,31.53,0,0,0,9.71,41.26Z"/><path class="cls-1" d="M65.82,40.69a7.63,7.63,0,0,1-.08,1.16,2.43,2.43,0,0,1-2.56,1.89A2.2,2.2,0,0,1,61,41.56a20.83,20.83,0,0,0-.88-5.88C57.49,28.07,52.24,23.5,44.29,22.1a21.39,21.39,0,0,0-2.77-.21,2.31,2.31,0,0,1-2.42-2.44A2.29,2.29,0,0,1,41.6,17,24.43,24.43,0,0,1,65.53,37.61c.06.37.11.75.15,1.13.06.64.1,1.29.15,2Z"/></g></g></svg>